<svg xmlns="http://www.w3.org/2000/svg" version="1.1" xmlns:xlink="http://www.w3.org/1999/xlink" xmlns:svgjs="http://svgjs.dev/svgjs" width="2000" height="1951" viewBox="0 0 2000 1951"><g transform="matrix(1,0,0,1,0.72379011832993,0)"><svg viewBox="0 0 205 200" data-background-color="#ffffff" preserveAspectRatio="xMidYMid meet" height="1951" width="2000" xmlns="http://www.w3.org/2000/svg" xmlns:xlink="http://www.w3.org/1999/xlink"><g id="tight-bounds" transform="matrix(1,0,0,1,-0.07418848712882209,0)"><svg viewBox="0 0 205.14837697425762 200" height="200" width="205.14837697425762"><g><svg viewBox="0 0 397.4975999999999 387.5220519535269" height="200" width="205.14837697425762"><g><rect width="397.4975999999999" height="6.633796536962022" x="0" y="248.1368504374289" fill="#4d331f" opacity="1" stroke-width="0" stroke="transparent" fill-opacity="1" class="rect-r$-0" data-fill-palette-color="primary" rx="1%" id="r$-0" data-palette-color="#4d331f"></rect></g><g transform="matrix(1,0,0,1,0.9887999999999693,272.13660649523393)"><svg viewBox="0 0 395.52 115.38544545829296" height="115.38544545829296" width="395.52"><g id="textblocktransform"><svg viewBox="0 0 395.52 115.38544545829296" height="115.38544545829296" width="395.52" id="textblock"><g><svg viewBox="0 0 395.52 73.56088514225499" height="73.56088514225499" width="395.52"><g transform="matrix(1,0,0,1,0,0)"><svg width="395.52" viewBox="0.4 -34.9 189.79 35.3" height="73.56088514225499" data-palette-color="#4d331f"><path d="M0.4-34.45L28.4-34.45 28.4-27.3 25.25-26.9Q24.6-27.4 24-29L24-29 18-29 18-5.8Q20-5 20.75-4.15L20.75-4.15 20.25 0 8.55 0 8.05-4.15Q8.7-5 10.8-5.8L10.8-5.8 10.8-29 4.8-29Q4.2-27.4 3.55-26.9L3.55-26.9 0.4-27.3 0.4-34.45ZM51.35-5.8L51.35-15.8 40.35-15.8 40.35-5.8Q42.35-5 43.1-4.15L43.1-4.15 42.6 0 30.9 0 30.4-4.15Q31.05-5 33.15-5.8L33.15-5.8 33.15-28.65Q31.1-29.4 30.4-30.35L30.4-30.35 30.9-34.5 42.6-34.5 43.1-30.35Q42.3-29.4 40.35-28.65L40.35-28.65 40.35-20.8 51.35-20.8 51.35-28.65Q49.3-29.4 48.6-30.35L48.6-30.35 49.1-34.5 60.8-34.5 61.3-30.35Q60.5-29.4 58.55-28.65L58.55-28.65 58.55-5.8Q60.55-5 61.3-4.15L61.3-4.15 60.8 0 49.1 0 48.6-4.15Q49.25-5 51.35-5.8L51.35-5.8ZM88.2-8.7L88.2 0 65 0 64.5-4.15Q65.15-5 67.25-5.8L67.25-5.8 67.25-28.65Q65.2-29.4 64.5-30.35L64.5-30.35 65-34.5 87.8-34.5 87.8-25.8 84.09-25.35Q82.95-26.35 82.25-29.05L82.25-29.05 74.45-29.05 74.45-20.45 81.4-20.45Q82-21.95 82.65-22.55L82.65-22.55 85.8-22.2 85.8-13.3 82.65-12.9Q82-13.4 81.4-15L81.4-15 74.45-15 74.45-5.45 82.65-5.45Q83.3-8.05 84.5-9.15L84.5-9.15 88.2-8.7ZM114.89-12L114.89-12 112.64-12 112.64-6.1Q116.29-5.3 117.19-4.15L117.19-4.15 116.69 0 103.19 0 102.69-4.15Q103.34-5 105.44-5.8L105.44-5.8 105.44-28.65Q103.39-29.4 102.69-30.35L102.69-30.35 103.19-34.5 116.44-34.5Q123.39-34.4 126.81-31.98 130.24-29.55 130.24-23.35L130.24-23.35Q130.24-12 114.89-12ZM115.64-29.05L115.64-29.05 112.64-29.05 112.64-17.45 115.99-17.45Q119.39-17.45 121.06-18.8 122.74-20.15 122.74-23.48 122.74-26.8 120.92-27.93 119.09-29.05 115.64-29.05ZM140.89-34.75L147.74-34.75 157.69-5.9Q159.79-5.15 160.64-4.15L160.64-4.15 160.14 0 148.44 0 147.94-4.15Q148.54-4.95 150.34-5.65L150.34-5.65 148.99-9.85 138.99-9.85 137.74-5.8Q139.49-5.1 140.34-4.15L140.34-4.15 139.84 0 128.44 0 127.94-4.15Q128.84-5.3 131.29-6.05L131.29-6.05 140.89-34.75ZM144.29-27.75L143.59-27.75Q143.59-24.7 142.34-20.65L142.34-20.65 140.39-14.45 147.54-14.45 145.64-20.55Q144.49-24.05 144.34-26.9L144.34-26.9 144.29-27.75ZM175.19 0.4Q168.09 0.4 164.56-3.7 161.04-7.8 161.04-16.98 161.04-26.15 164.91-30.53 168.79-34.9 175.96-34.9 183.14-34.9 186.66-31 190.19-27.1 190.19-17.95 190.19-8.8 186.24-4.2 182.29 0.4 175.19 0.4ZM170.34-26.65Q168.54-24.05 168.54-17.6 168.54-11.15 170.44-8.2 172.34-5.25 175.66-5.25 178.99-5.25 180.84-8.03 182.69-10.8 182.69-17.25L182.69-17.25Q182.69-29.25 175.49-29.25L175.49-29.25Q172.14-29.25 170.34-26.65Z" opacity="1" transform="matrix(1,0,0,1,0,0)" fill="#4d331f" class="wordmark-text-0" data-fill-palette-color="primary" id="text-0"></path></svg></g></svg></g><g transform="matrix(1,0,0,1,0,90.92684466309798)"><svg viewBox="0 0 395.52 24.45860079519499" height="24.45860079519499" width="395.52"><g transform="matrix(1,0,0,1,0,0)"><svg width="395.52" viewBox="1.6 -36.15 590.99 36.55" height="24.45860079519499" data-palette-color="#4d331f"><path d="M14.85 0L14.85 0 2.1 0 1.6-4.15Q2.25-5 4.35-5.8L4.35-5.8 4.35-28.65Q2.3-29.4 1.6-30.35L1.6-30.35 2.1-34.5 13.25-34.5Q21.3-34.5 26.03-30 30.75-25.5 30.75-16.78 30.75-8.05 26.48-4.03 22.2 0 14.85 0ZM11.55-29.05L11.55-5.45 15.15-5.45Q18.9-5.45 21.08-7.73 23.25-10 23.25-16.55L23.25-16.55Q23.25-29.05 13.8-29.05L13.8-29.05 11.55-29.05ZM45.45 0.4L45.45 0.4Q39.45 0.4 36.42-2.8 33.4-6 33.4-12.1L33.4-12.1Q33.4-15.8 34.45-18.48 35.5-21.15 37.3-22.6L37.3-22.6Q40.8-25.4 45.45-25.4 50.1-25.4 52.57-23.03 55.05-20.65 55.05-14.5L55.05-14.5Q55.05-10.9 51.5-10.9L51.5-10.9 40.65-10.9Q40.85-7.75 42.27-6.45 43.7-5.15 46.8-5.15L46.8-5.15Q48.5-5.15 50.05-5.55 51.6-5.95 52.3-6.35L52.3-6.35 53-6.75 54.5-2.75Q54.2-2.4 53.62-1.88 53.05-1.35 50.72-0.48 48.4 0.4 45.45 0.4ZM40.7-15.05L48.6-15.35Q48.7-16.05 48.7-17.05 48.7-18.05 47.9-19.18 47.1-20.3 45.12-20.3 43.15-20.3 42.1-19.1 41.05-17.9 40.7-15.05L40.7-15.05ZM69.34-20.3L69.34-20.3Q64.75-20.3 64.75-12.4L64.75-12.4Q64.75-8.4 66.02-6.83 67.3-5.25 69.7-5.25L69.7-5.25Q73.5-5.25 76.4-5.95L76.4-5.95 77.9-2.1Q76.3-1.05 73.59-0.33 70.9 0.4 68.34 0.4L68.34 0.4Q57.55 0.4 57.55-12.1L57.55-12.1Q57.55-19.4 61.3-22.6L61.3-22.6Q64.64-25.4 69.45-25.4 74.25-25.4 77.45-23.6L77.45-23.6Q77.5-23.1 77.5-22.65L77.5-22.65Q77.5-19.8 76.2-17.25L76.2-17.25 71.8-17.25Q71.09-18.5 70.95-20.25L70.95-20.25Q70.34-20.3 69.34-20.3ZM92.09 0.4L92.09 0.4Q86.09 0.4 83.07-2.8 80.04-6 80.04-12.1L80.04-12.1Q80.04-15.8 81.09-18.48 82.14-21.15 83.94-22.6L83.94-22.6Q87.44-25.4 92.09-25.4 96.74-25.4 99.22-23.03 101.69-20.65 101.69-14.5L101.69-14.5Q101.69-10.9 98.14-10.9L98.14-10.9 87.29-10.9Q87.49-7.75 88.92-6.45 90.34-5.15 93.44-5.15L93.44-5.15Q95.14-5.15 96.69-5.55 98.24-5.95 98.94-6.35L98.94-6.35 99.64-6.75 101.14-2.75Q100.84-2.4 100.27-1.88 99.69-1.35 97.37-0.48 95.04 0.4 92.09 0.4ZM87.34-15.05L95.24-15.35Q95.34-16.05 95.34-17.05 95.34-18.05 94.54-19.18 93.74-20.3 91.77-20.3 89.79-20.3 88.74-19.1 87.69-17.9 87.34-15.05L87.34-15.05ZM104.24-21.15L104.74-25Q107.49-25.6 109.69-25.6 111.89-25.6 113.34-25.5L113.34-25.5 113.34-23Q114.59-24.05 116.67-24.73 118.74-25.4 120.64-25.4L120.64-25.4Q125.54-25.4 127.52-23.1 129.49-20.8 129.49-15.15L129.49-15.15 129.49-5.55Q131.44-4.8 132.24-3.85L132.24-3.85 131.74 0 120.24 0 119.74-3.85Q120.44-4.8 122.49-5.55L122.49-5.55 122.49-15.45Q122.49-18.15 121.62-19.07 120.74-20 118.49-20 116.24-20 113.99-18.4L113.99-18.4 113.99-5.55Q115.94-4.8 116.74-3.85L116.74-3.85 116.24 0 104.74 0 104.24-3.85Q104.94-4.8 106.99-5.55L106.99-5.55 106.99-19.45Q105.24-20.05 104.24-21.15L104.24-21.15ZM139.44-31.3L143.09-31.3 143.09-25 150.24-25 150.24-20.8 143.09-20.8 143.09-8.15Q143.09-6.55 143.54-5.83 143.99-5.1 145.69-5.1 147.39-5.1 149.34-5.85L149.34-5.85 150.84-1.95Q146.99 0 142.96 0 138.94 0 137.51-1.73 136.09-3.45 136.09-6.75L136.09-6.75 136.09-20.8 133.84-20.8 133.29-23.85Q134.09-24.8 136.59-25.75L136.59-25.75Q137.19-29.85 139.44-31.3L139.44-31.3ZM167.59-18.85L167.59-18.85Q163.78-18.85 162.34-17.4L162.34-17.4 162.34-5.95Q166.38-5.2 167.88-3.85L167.88-3.85 167.38 0 153.09 0 152.59-3.85Q153.28-4.8 155.34-5.55L155.34-5.55 155.34-19.45Q153.59-20.05 152.59-21.15L152.59-21.15 153.09-25Q155.84-25.6 158.03-25.6 160.23-25.6 161.69-25.5L161.69-25.5 161.69-22.35Q162.84-23.7 164.63-24.58 166.44-25.45 167.91-25.45 169.38-25.45 169.94-25.2L169.94-25.2 169.78-18.7Q168.78-18.85 167.59-18.85ZM172.98-21.3L172.98-21.3Q172.98-22.05 173.03-22.9L173.03-22.9Q177.68-25.4 183.03-25.4 188.38-25.4 190.71-23.38 193.03-21.35 193.03-16.65L193.03-16.65 193.03-6Q194.78-5.65 195.78-5.15L195.78-5.15 195.78-0.8Q193.23 0.4 188.48 0.4L188.48 0.4Q187.98-0.9 187.63-2.75L187.63-2.75Q185.48 0.4 179.83 0.4L179.83 0.4Q176.48 0.4 174.11-1.55 171.73-3.5 171.73-6.85 171.73-10.2 173.96-12.13 176.18-14.05 180.58-14.05L180.58-14.05 186.03-14.05 186.03-16.45Q186.03-20.35 181.88-20.35L181.88-20.35Q180.33-20.35 179.33-20.05L179.33-20.05Q179.23-17.95 178.73-16.8L178.73-16.8 173.83-16.8Q172.98-18.55 172.98-21.3ZM181.98-4.7L181.98-4.7Q184.53-4.7 186.03-6.2L186.03-6.2 186.03-10.3 182.53-10.3Q178.93-10.3 178.93-7.55L178.93-7.55Q178.93-6.3 179.71-5.5 180.48-4.7 181.98-4.7ZM196.98-31.65L197.48-35.5Q200.28-36.15 202.68-36.15 205.08-36.15 206.73-36L206.73-36 206.73-5.55Q208.68-4.8 209.48-3.85L209.48-3.85 208.98 0 197.48 0 196.98-3.85Q197.68-4.8 199.73-5.55L199.73-5.55 199.73-29.95Q197.98-30.55 196.98-31.65L196.98-31.65ZM211.63-21.15L212.13-25Q214.93-25.65 217.33-25.65 219.73-25.65 221.38-25.5L221.38-25.5 221.38-5.55Q223.33-4.8 224.13-3.85L224.13-3.85 223.63 0 212.13 0 211.63-3.85Q212.33-4.8 214.38-5.55L214.38-5.55 214.38-19.45Q212.63-20.05 211.63-21.15L211.63-21.15ZM217.8-28.45Q213.63-28.45 213.63-32.23 213.63-36 217.8-36 221.98-36 221.98-32.23 221.98-28.45 217.8-28.45ZM230.77-17.4L226.92-17.9Q226.38-20.4 226.38-22.23 226.38-24.05 226.42-25L226.42-25 246.67-25 247.17-20.8 237.42-8.35Q236.07-6.55 234.47-5.25L234.47-5.25 234.72-4.7Q236.17-5.15 238.77-5.15L238.77-5.15 241.52-5.15Q242.27-6.95 243.17-7.8L243.17-7.8 247.02-7.3Q247.57-4.8 247.57-2.9 247.57-1 247.52 0L247.52 0 226.38 0 225.88-4.1 235.67-16.7Q237.02-18.5 238.63-19.8L238.63-19.8 238.38-20.35Q236.92-19.9 234.32-19.9L234.32-19.9 232.38-19.9Q231.63-18.2 230.77-17.4L230.77-17.4ZM262.07 0.4L262.07 0.4Q256.07 0.4 253.05-2.8 250.02-6 250.02-12.1L250.02-12.1Q250.02-15.8 251.07-18.48 252.12-21.15 253.92-22.6L253.92-22.6Q257.42-25.4 262.07-25.4 266.72-25.4 269.2-23.03 271.67-20.65 271.67-14.5L271.67-14.5Q271.67-10.9 268.12-10.9L268.12-10.9 257.27-10.9Q257.47-7.75 258.9-6.45 260.32-5.15 263.42-5.15L263.42-5.15Q265.12-5.15 266.67-5.55 268.22-5.95 268.92-6.35L268.92-6.35 269.62-6.75 271.12-2.75Q270.82-2.4 270.25-1.88 269.67-1.35 267.35-0.48 265.02 0.4 262.07 0.4ZM257.32-15.05L265.22-15.35Q265.32-16.05 265.32-17.05 265.32-18.05 264.52-19.18 263.72-20.3 261.75-20.3 259.77-20.3 258.72-19.1 257.67-17.9 257.32-15.05L257.32-15.05ZM305.27-4.15L304.77 0 293.07 0 292.57-4.15Q293.22-5 295.32-5.8L295.32-5.8 295.32-11.55 287.17-28.5Q284.82-29.3 283.97-30.35L283.97-30.35 284.42-34.25 284.42-34.3 284.47-34.5 296.17-34.5 296.67-30.35Q296.07-29.5 294.37-28.85L294.37-28.85 296.07-25Q297.52-21.7 298.57-18.45L298.57-18.45 298.92-17.45 299.67-17.45Q300.72-21.1 302.42-25L302.42-25 304.02-28.65Q302.02-29.45 301.32-30.35L301.32-30.35 301.82-34.5 313.22-34.5 313.72-30.35Q312.72-29.2 310.42-28.45L310.42-28.45 302.52-11.55 302.52-5.8Q304.52-5 305.27-4.15L305.27-4.15ZM323.59 0.4Q317.66 0.4 314.81-2.75 311.96-5.9 311.96-12.28 311.96-18.65 315.14-22.03 318.31-25.4 324.26-25.4 330.21-25.4 333.09-22.4 335.96-19.4 335.96-13.03 335.96-6.65 332.74-3.13 329.51 0.4 323.59 0.4ZM319.16-12.7L319.16-12.7Q319.16-4.7 323.96-4.7L323.96-4.7Q326.41-4.7 327.59-6.53 328.76-8.35 328.76-12.5L328.76-12.5Q328.76-20.3 323.86-20.3L323.86-20.3Q321.46-20.3 320.31-18.57 319.16-16.85 319.16-12.7ZM356.96-2.1L356.96-2.1Q353.51 0.4 348.84 0.4 344.16 0.4 342.31-1.55 340.46-3.5 340.46-7.9L340.46-7.9 340.46-19.45Q338.71-20.05 337.71-21.15L337.71-21.15 338.21-25Q341.01-25.65 343.41-25.65 345.81-25.65 347.46-25.5L347.46-25.5 347.46-9.55Q347.46-6.85 348.29-5.98 349.11-5.1 351.56-5.1 354.01-5.1 356.11-6.7L356.11-6.7 356.11-19.45Q354.36-20.05 353.36-21.15L353.36-21.15 353.86-25Q356.66-25.65 359.06-25.65 361.46-25.65 363.11-25.5L363.11-25.5 363.11-6Q364.86-5.65 365.86-5.15L365.86-5.15 365.86-1.2Q362.86 0.4 358.31 0.4L358.31 0.4Q357.06-0.5 356.96-2.1ZM382.91-18.85L382.91-18.85Q379.11-18.85 377.66-17.4L377.66-17.4 377.66-5.95Q381.71-5.2 383.21-3.85L383.21-3.85 382.71 0 368.41 0 367.91-3.85Q368.61-4.8 370.66-5.55L370.66-5.55 370.66-19.45Q368.91-20.05 367.91-21.15L367.91-21.15 368.41-25Q371.16-25.6 373.36-25.6 375.56-25.6 377.01-25.5L377.01-25.5 377.01-22.35Q378.16-23.7 379.96-24.58 381.76-25.45 383.23-25.45 384.71-25.45 385.26-25.2L385.26-25.2 385.11-18.7Q384.11-18.85 382.91-18.85ZM399.35-34.5L410.7-34.5Q416.6-34.5 419.28-33.77 421.95-33.05 423.1-32.05L423.1-32.05Q425.65-29.85 425.65-25.3L425.65-25.3Q425.65-21.9 422-18.85L422-18.85Q426.65-16.5 426.65-10.1L426.65-10.1Q426.65-5.1 423.38-2.68 420.1-0.25 413.6 0L413.6 0 399.35 0 398.85-4.15Q399.5-5 401.6-5.8L401.6-5.8 401.6-28.65Q399.55-29.4 398.85-30.35L398.85-30.35 399.35-34.5ZM413.25-14.95L413.25-14.95 408.8-14.95 408.8-5.45 412.25-5.45Q415.65-5.45 417.4-6.45 419.15-7.45 419.15-10.05 419.15-12.65 417.78-13.8 416.4-14.95 413.25-14.95ZM411.4-29.05L411.4-29.05 408.8-29.05 408.8-20.4 412.9-20.4Q415.45-20.4 416.8-21.7 418.15-23 418.15-24.88 418.15-26.75 417.2-27.7 416.25-28.65 415-28.85 413.75-29.05 411.4-29.05ZM447.85-2.1L447.85-2.1Q444.4 0.4 439.73 0.4 435.05 0.4 433.2-1.55 431.35-3.5 431.35-7.9L431.35-7.9 431.35-19.45Q429.6-20.05 428.6-21.15L428.6-21.15 429.1-25Q431.9-25.65 434.3-25.65 436.7-25.65 438.35-25.5L438.35-25.5 438.35-9.55Q438.35-6.85 439.18-5.98 440-5.1 442.45-5.1 444.9-5.1 447-6.7L447-6.7 447-19.45Q445.25-20.05 444.25-21.15L444.25-21.15 444.75-25Q447.55-25.65 449.95-25.65 452.35-25.65 454-25.5L454-25.5 454-6Q455.75-5.65 456.75-5.15L456.75-5.15 456.75-1.2Q453.75 0.4 449.2 0.4L449.2 0.4Q447.95-0.5 447.85-2.1ZM468.8-20.9L468.8-20.9Q465.5-20.9 465.5-18.95L465.5-18.95Q465.5-17.1 468.95-16.2L468.95-16.2 472.9-15.15Q479-13.55 479-8.1L479-8.1Q479-4.35 476.37-1.98 473.75 0.4 468.02 0.4 462.3 0.4 459.1-1.2L459.1-1.2Q459.05-1.75 459.05-2.3L459.05-2.3Q459.05-5.05 460.15-7.25L460.15-7.25 464.3-7.25Q464.95-6.05 465.15-4.75L465.15-4.75Q466.15-4.45 468-4.45L468-4.45Q472.4-4.45 472.4-6.95L472.4-6.95Q472.4-7.75 471.8-8.28 471.2-8.8 469.45-9.3L469.45-9.3 465.5-10.45Q462.45-11.3 460.75-12.98 459.05-14.65 459.05-17.93 459.05-21.2 461.7-23.3 464.35-25.4 469.27-25.4 474.2-25.4 477.6-23.95L477.6-23.95Q477.65-23.45 477.65-22.95L477.65-22.95Q477.65-20.35 476.55-18.15L476.55-18.15 472.45-18.15Q471.8-19.3 471.6-20.55L471.6-20.55Q470.2-20.9 468.8-20.9ZM481.45-21.15L481.95-25Q484.75-25.65 487.15-25.65 489.55-25.65 491.2-25.5L491.2-25.5 491.2-5.55Q493.15-4.8 493.95-3.85L493.95-3.85 493.45 0 481.95 0 481.45-3.85Q482.15-4.8 484.2-5.55L484.2-5.55 484.2-19.45Q482.45-20.05 481.45-21.15L481.45-21.15ZM487.62-28.45Q483.45-28.45 483.45-32.23 483.45-36 487.62-36 491.8-36 491.8-32.23 491.8-28.45 487.62-28.45ZM495.94-21.15L496.44-25Q499.19-25.6 501.39-25.6 503.59-25.6 505.04-25.5L505.04-25.5 505.04-23Q506.29-24.05 508.37-24.73 510.44-25.4 512.34-25.4L512.34-25.4Q517.24-25.4 519.22-23.1 521.19-20.8 521.19-15.15L521.19-15.15 521.19-5.55Q523.14-4.8 523.94-3.85L523.94-3.85 523.44 0 511.94 0 511.44-3.85Q512.14-4.8 514.19-5.55L514.19-5.55 514.19-15.45Q514.19-18.15 513.32-19.07 512.44-20 510.19-20 507.94-20 505.69-18.4L505.69-18.4 505.69-5.55Q507.64-4.8 508.44-3.85L508.44-3.85 507.94 0 496.44 0 495.94-3.85Q496.64-4.8 498.69-5.55L498.69-5.55 498.69-19.45Q496.94-20.05 495.94-21.15L495.94-21.15ZM537.69 0.4L537.69 0.4Q531.69 0.4 528.67-2.8 525.64-6 525.64-12.1L525.64-12.1Q525.64-15.8 526.69-18.48 527.74-21.15 529.54-22.6L529.54-22.6Q533.04-25.4 537.69-25.4 542.34-25.4 544.82-23.03 547.29-20.65 547.29-14.5L547.29-14.5Q547.29-10.9 543.74-10.9L543.74-10.9 532.89-10.9Q533.09-7.75 534.52-6.45 535.94-5.15 539.04-5.15L539.04-5.15Q540.74-5.15 542.29-5.55 543.84-5.95 544.54-6.35L544.54-6.35 545.24-6.75 546.74-2.75Q546.44-2.4 545.87-1.88 545.29-1.35 542.97-0.48 540.64 0.4 537.69 0.4ZM532.94-15.05L540.84-15.35Q540.94-16.05 540.94-17.05 540.94-18.05 540.14-19.18 539.34-20.3 537.37-20.3 535.39-20.3 534.34-19.1 533.29-17.9 532.94-15.05L532.94-15.05ZM559.84-20.9L559.84-20.9Q556.54-20.9 556.54-18.95L556.54-18.95Q556.54-17.1 559.99-16.2L559.99-16.2 563.94-15.15Q570.04-13.55 570.04-8.1L570.04-8.1Q570.04-4.35 567.41-1.98 564.79 0.4 559.06 0.4 553.34 0.4 550.14-1.2L550.14-1.2Q550.09-1.75 550.09-2.3L550.09-2.3Q550.09-5.05 551.19-7.25L551.19-7.25 555.34-7.25Q555.99-6.05 556.19-4.75L556.19-4.75Q557.19-4.45 559.04-4.45L559.04-4.45Q563.44-4.45 563.44-6.95L563.44-6.95Q563.44-7.75 562.84-8.28 562.24-8.8 560.49-9.3L560.49-9.3 556.54-10.45Q553.49-11.3 551.79-12.98 550.09-14.65 550.09-17.93 550.09-21.2 552.74-23.3 555.39-25.4 560.31-25.4 565.24-25.4 568.64-23.95L568.64-23.95Q568.69-23.45 568.69-22.95L568.69-22.95Q568.69-20.35 567.59-18.15L567.59-18.15 563.49-18.15Q562.84-19.3 562.64-20.55L562.64-20.55Q561.24-20.9 559.84-20.9ZM582.39-20.9L582.39-20.9Q579.09-20.9 579.09-18.95L579.09-18.95Q579.09-17.1 582.54-16.2L582.54-16.2 586.49-15.15Q592.59-13.55 592.59-8.1L592.59-8.1Q592.59-4.35 589.96-1.98 587.34 0.4 581.61 0.4 575.89 0.4 572.69-1.2L572.69-1.2Q572.64-1.75 572.64-2.3L572.64-2.3Q572.64-5.05 573.74-7.25L573.74-7.25 577.89-7.25Q578.54-6.05 578.74-4.75L578.74-4.75Q579.74-4.45 581.59-4.45L581.59-4.45Q585.99-4.45 585.99-6.95L585.99-6.95Q585.99-7.75 585.39-8.28 584.79-8.8 583.04-9.3L583.04-9.3 579.09-10.45Q576.04-11.3 574.34-12.98 572.64-14.65 572.64-17.93 572.64-21.2 575.29-23.3 577.94-25.4 582.86-25.4 587.79-25.4 591.19-23.95L591.19-23.95Q591.24-23.45 591.24-22.95L591.24-22.95Q591.24-20.35 590.14-18.15L590.14-18.15 586.04-18.15Q585.39-19.3 585.19-20.55L585.19-20.55Q583.79-20.9 582.39-20.9Z" opacity="1" transform="matrix(1,0,0,1,0,0)" fill="#4d331f" class="slogan-text-1" data-fill-palette-color="secondary" id="text-1"></path></svg></g></svg></g></svg></g></svg></g><g transform="matrix(1,0,0,1,58.34369486453437,0)"><svg viewBox="0 0 280.8102102709312 230.77089091658593" height="230.77089091658593" width="280.8102102709312"><g><svg xmlns="http://www.w3.org/2000/svg" xmlns:xlink="http://www.w3.org/1999/xlink" version="1.1" x="0" y="0" viewBox="6.407207797575209 12.593525519848768 88.49747970242478 72.72756291552534" enable-background="new 0 0 100 100" xml:space="preserve" height="230.77089091658593" width="280.8102102709312" class="icon-icon-0" data-fill-palette-color="accent" id="icon-0"><path fill="#4d331f" d="M90.3 30.7c1.2-0.2 4.6-3.3 4.6-4.4 0-1.1-7.6 1.8-4.5 0 3.1-1.8 4.6-4.5 4.5-5.3 0-0.8-5.3 1.3-5.3 1.3s4.6-3.9 4-4.7C93 16.8 86.9 21 86.9 21s5.5-6.1 4.3-6.7c-1.2-0.6-9.9 9.2-7.3 5.5 2.5-3.7 1.2-6 0.6-3.9-0.6 2.1-18 8.5-21.2 13.8-3.3 5.3-3.9 9.4-9.2 8.2-5.3-1.2-8.6-11.5-13.1-11.9C36.3 25.6 33 28.3 33 31c0 1.2-2.3 0.8-3.1 3.1 2.4-0.4 4.9-0.9 5.9 1 1 1.8-2.7 4.1-7 2.1-2.9-1.4-5.8-2.4-7.5-3.6 0-0.3 0-0.7-0.2-1.3-0.3-0.9-1.3-1.7-1.3-1.7s0.8-0.7 0.2-1.7c-0.6-1-1.4-1.6-1.4-1.6s0.3-0.8-0.2-2.1c-0.5-1.3-2.3-1.1-2.3-1.1s1.2-0.9 0.4-2.5c-0.4-0.9-1.7 0.4-1.5-0.3 0.4-1.5-0.4-3.1-1-3.8-0.6-0.7-1.4 2.8-1.4 1.1-0.1-2.7-0.1-2.8-0.6-3.3-0.5-0.5-1.7 1.5-1.7 1.5s-0.4-3.1-1.1-3.3c-0.6-0.2-0.8 3.4-0.8 3.4s-1.1-4.5-1.8-4.3c-0.4 0.1-0.1 2.3 0.2 4 0 0 0.1 0.8 0.2 1.2 0 0 0 0.1 0 0.1l0 0c1.3 4.9 8.9 19 16.1 24 4.7 3.4 5.7 8.7 16.7 17.5 3.1 2.5 0.2 4.3 0.2 4.3l-7.6 6.6c0 0-1.4 1.4-0.4 2.8 1.2 1.7 3.3 2.1 3.3 2.1s-1.3 2-0.2 3.2c1.1 1.2 3.6 0.1 3.6 0.1s-1.2 2.4 0.5 3.2c1.7 0.8 3.6-1.2 3.6-1.2s-0.4 3.2 1.4 3.8c1.8 0.6 4.9-2.1 4.9-2.1s0.3 2.9 1.7 3.1c2.1 0.3 2.7-2.7 2.7-2.7s1.3 3.1 3.3 2.1c2-1 1-3.6 1-3.6s1.9 2.5 3.5 1.9c1.6-0.6 1.3-3.5 1.3-3.5s1.7 1.1 3.1 0.1c1.4-1 0.6-4 0.6-4s1.7 1.1 2.7-0.6c1.1-1.6-0.9-3.6-0.9-3.6s2.6-0.3 3.4-2c0.8-1.7-2.3-3.5-2.3-3.5s2-1 1.4-2.9c-0.4-1.3-7.4-1.6-11.5-1.6 0.5-0.3 0.8-0.5 0.8-0.5 0 0 1 0.6 1.9 0.3 0.9-0.3 1.8-1.1 1.8-1.1s0.5 1 2.2 0.1c1.4-0.7 1.2-1.2 1-1.3 0.2 0.2 0.8 0.6 1.8 0.2 1.3-0.4 1.1-1.6 1.1-1.6s0.9 0.8 1.8 0.6c0.9-0.3 0.6-1.2 0.6-1.2s1 0.3 2 0c0.9-0.3 0.2-1.6 0.2-1.6s1 0.6 2 0c1-0.5 0.4-1.3 0.4-1.3s0.6 0.2 1.5-0.7c0.8-0.9 0.2-1.8 0.2-1.8s1.9 0.1 2.5-0.9c0.6-0.9 0-1.7 0-1.7s1.4-0.4 2.3-1.2c0.8-0.9 0.5-2.1 0.5-2.1s1-0.2 1.6-1.2c0.6-0.9 0.3-2.5 0.3-2.5s1.6 0.5 1.9-0.8c0.4-1.3 0.3-2.7 0.3-2.7s1.4-0.3 2.1-1.7c0.7-1.4-1.7-3.1-1.7-3.1s3.3 0.9 4.2-1C93.1 31.7 89.1 30.9 90.3 30.7" data-fill-palette-color="accent"></path></svg></g></svg></g><g></g></svg></g><defs></defs></svg><rect width="205.14837697425762" height="200" fill="none" stroke="none" visibility="hidden"></rect></g></svg></g></svg>